<svg width="28" height="28" viewBox="0 0 28 28" fill="none" xmlns="http://www.w3.org/2000/svg">
<path d="M14.0671 7.42088e-06C10.7276 -0.00345945 7.4961 1.20791 4.95162 3.41703C2.40713 5.62616 0.716017 8.68865 0.181328 12.0556C-0.353361 15.4227 0.303328 18.8741 2.03371 21.7915C3.7641 24.7089 6.45506 26.9015 9.62436 27.9764C10.3317 28.1086 10.582 27.6592 10.582 27.2803C10.582 26.9014 10.582 26.0379 10.582 24.8396C6.65682 25.7119 5.82866 22.9098 5.82866 22.9098C5.56827 22.0413 5.01507 21.2953 4.26725 20.8039C2.99913 19.9228 4.37076 19.9228 4.37076 19.9228C4.81529 19.9868 5.2397 20.1535 5.61186 20.41C5.98402 20.6665 6.29416 21.006 6.51879 21.403C6.70967 21.7566 6.96701 22.0681 7.27604 22.3198C7.58508 22.5715 7.93972 22.7583 8.31964 22.8697C8.69959 22.981 9.09728 23.0146 9.48996 22.9686C9.88255 22.9226 10.2625 22.7978 10.6078 22.6014C10.662 21.8766 10.9679 21.1953 11.4705 20.6805C8.34764 20.3193 5.06952 19.0856 5.06952 13.6313C5.04808 12.2065 5.56389 10.8279 6.51017 9.78074C6.08872 8.54186 6.13798 7.18653 6.6482 5.98299C6.6482 5.98299 7.83004 5.59529 10.5129 7.45451C12.8168 6.80841 15.2484 6.80841 17.5523 7.45451C20.2352 5.59529 21.4084 5.98299 21.4084 5.98299C21.9257 7.17379 21.9873 8.51938 21.5809 9.75426C22.5272 10.8014 23.043 12.1801 23.0216 13.6049C23.0216 19.1209 19.7348 20.3281 16.6033 20.6541C16.9391 20.9988 17.1983 21.4133 17.3636 21.8694C17.5288 22.3255 17.5961 22.8125 17.5609 23.2975C17.5609 25.2184 17.5609 26.7693 17.5609 27.2363C17.5609 27.7033 17.811 28.0645 18.5271 27.9235C21.6603 26.8203 24.3109 24.6214 26.0108 21.7154C27.7106 18.8094 28.3502 15.3832 27.8166 12.0422C27.2829 8.70113 25.6105 5.66028 23.0946 3.45677C20.5786 1.25325 17.3812 0.0288995 14.0671 7.42088e-06Z" />
</svg>
