<svg width="254" height="82" viewBox="0 0 254 82" fill="none" xmlns="http://www.w3.org/2000/svg">
<path d="M6.03869 57V33H10.5987L10.8387 37.032C11.6707 35.496 12.7747 34.36 14.1507 33.624C15.5587 32.888 17.0467 32.52 18.6147 32.52C20.3427 32.52 21.9267 32.92 23.3667 33.72C24.8387 34.488 25.9427 35.656 26.6787 37.224C27.1907 36.168 27.8947 35.288 28.7907 34.584C29.6867 33.88 30.6787 33.368 31.7667 33.048C32.8547 32.696 33.9267 32.52 34.9827 32.52C36.5187 32.52 37.9587 32.84 39.3027 33.48C40.6467 34.12 41.7347 35.096 42.5667 36.408C43.3987 37.72 43.8147 39.4 43.8147 41.448V57H38.6787V42.264C38.6787 40.28 38.1987 38.872 37.2387 38.04C36.3107 37.176 35.1427 36.744 33.7347 36.744C32.0707 36.744 30.6147 37.368 29.3667 38.616C28.1187 39.832 27.4947 41.608 27.4947 43.944V57H22.3587V42.264C22.3587 40.28 21.8787 38.872 20.9187 38.04C19.9907 37.176 18.8227 36.744 17.4147 36.744C16.4547 36.744 15.4947 37 14.5347 37.512C13.5747 38.024 12.7747 38.824 12.1347 39.912C11.4947 41 11.1747 42.44 11.1747 44.232V57H6.03869Z" fill="url(#paint0_linear_12_39)"/>
<path d="M56.5932 22.2V50.28C56.5932 51.464 56.8012 52.28 57.2172 52.728C57.6332 53.176 58.3212 53.4 59.2812 53.4C59.8572 53.4 60.3372 53.368 60.7212 53.304C61.1372 53.208 61.6492 53.048 62.2572 52.824L61.6812 56.664C60.5612 57.208 59.2332 57.48 57.6972 57.48C55.5532 57.48 53.9692 56.936 52.9452 55.848C51.9532 54.76 51.4572 53.048 51.4572 50.712V22.2H56.5932Z" fill="url(#paint1_linear_12_39)"/>
<path d="M66.5543 57V33H71.1143L71.3543 37.128C72.1543 35.528 73.2583 34.36 74.6663 33.624C76.1063 32.888 77.7063 32.52 79.4663 32.52C81.1623 32.52 82.6823 32.856 84.0263 33.528C85.4023 34.168 86.4903 35.16 87.2903 36.504C88.0903 37.816 88.4903 39.464 88.4903 41.448V57H83.3543V43.032C83.3543 40.664 82.8583 39.032 81.8663 38.136C80.9063 37.208 79.6903 36.744 78.2183 36.744C77.1623 36.744 76.1383 36.984 75.1463 37.464C74.1543 37.944 73.3223 38.744 72.6503 39.864C72.0103 40.952 71.6903 42.408 71.6903 44.232V57H66.5543Z" fill="url(#paint2_linear_12_39)"/>
<path d="M111.256 33V37.032H103V49.8C103 50.952 103.32 51.816 103.96 52.392C104.6 52.936 105.432 53.208 106.456 53.208C107.352 53.208 108.104 53.08 108.712 52.824C109.352 52.536 109.944 52.152 110.488 51.672L111.64 55.416C110.904 56.056 109.992 56.568 108.904 56.952C107.848 57.304 106.664 57.48 105.352 57.48C103.24 57.48 101.464 56.968 100.024 55.944C98.5838 54.888 97.8638 53.128 97.8638 50.664V37.032H93.2558V33H97.8638V27.384L103 25.944V33H111.256Z" fill="url(#paint3_linear_12_39)"/>
<path d="M126.704 32.52C129.552 32.52 131.824 33.144 133.52 34.392C135.216 35.64 136.432 37.256 137.168 39.24L132.32 41.16C131.904 39.688 131.232 38.568 130.304 37.8C129.408 37 128.224 36.6 126.752 36.6C124.608 36.6 122.928 37.336 121.712 38.808C120.528 40.248 119.936 42.328 119.936 45.048C119.936 47.736 120.544 49.8 121.76 51.24C122.976 52.68 124.64 53.4 126.752 53.4C128.416 53.4 129.728 53 130.688 52.2C131.68 51.4 132.336 50.248 132.656 48.744L137.312 50.328C136.64 52.504 135.408 54.248 133.616 55.56C131.824 56.84 129.568 57.48 126.848 57.48C124.48 57.48 122.384 56.984 120.56 55.992C118.768 55 117.36 53.576 116.336 51.72C115.312 49.832 114.8 47.592 114.8 45C114.8 42.408 115.312 40.184 116.336 38.328C117.36 36.44 118.768 35 120.56 34.008C122.352 33.016 124.4 32.52 126.704 32.52Z" fill="url(#paint4_linear_12_39)"/>
<path d="M157.161 41.592C157.161 39.992 156.713 38.76 155.817 37.896C154.953 37 153.753 36.552 152.217 36.552C150.777 36.552 149.529 36.888 148.473 37.56C147.449 38.232 146.713 39.32 146.265 40.824L141.945 39C142.553 37.048 143.737 35.48 145.497 34.296C147.289 33.112 149.593 32.52 152.409 32.52C154.297 32.52 155.977 32.84 157.449 33.48C158.953 34.088 160.121 35.032 160.953 36.312C161.817 37.56 162.249 39.144 162.249 41.064V51.768C162.249 52.952 162.841 53.544 164.025 53.544C164.601 53.544 165.161 53.464 165.705 53.304L165.417 56.856C164.681 57.208 163.753 57.384 162.633 57.384C161.353 57.384 160.249 57.096 159.321 56.52C158.393 55.944 157.769 55.08 157.449 53.928C156.681 55.112 155.577 56.008 154.137 56.616C152.697 57.192 151.257 57.48 149.817 57.48C147.545 57.48 145.657 56.936 144.153 55.848C142.649 54.76 141.897 53.128 141.897 50.952C141.897 49.192 142.473 47.736 143.625 46.584C144.809 45.432 146.473 44.632 148.617 44.184L157.161 42.504V41.592ZM147.081 50.568C147.081 51.464 147.417 52.184 148.089 52.728C148.793 53.24 149.721 53.496 150.873 53.496C151.961 53.496 152.985 53.32 153.945 52.968C154.905 52.616 155.673 52.04 156.249 51.24C156.857 50.44 157.161 49.4 157.161 48.12V46.104L151.113 47.352C149.737 47.608 148.713 47.976 148.041 48.456C147.401 48.936 147.081 49.64 147.081 50.568Z" fill="url(#paint5_linear_12_39)"/>
<path d="M170.664 57V33H175.224L175.464 37.128C176.264 35.528 177.368 34.36 178.776 33.624C180.216 32.888 181.816 32.52 183.576 32.52C185.272 32.52 186.792 32.856 188.136 33.528C189.512 34.168 190.6 35.16 191.4 36.504C192.2 37.816 192.6 39.464 192.6 41.448V57H187.464V43.032C187.464 40.664 186.968 39.032 185.976 38.136C185.016 37.208 183.8 36.744 182.328 36.744C181.272 36.744 180.248 36.984 179.256 37.464C178.264 37.944 177.432 38.744 176.76 39.864C176.12 40.952 175.8 42.408 175.8 44.232V57H170.664Z" fill="url(#paint6_linear_12_39)"/>
<path d="M209.598 57.48C207.614 57.48 205.822 56.984 204.222 55.992C202.622 55 201.342 53.576 200.382 51.72C199.454 49.864 198.99 47.64 198.99 45.048C198.99 42.36 199.486 40.088 200.478 38.232C201.47 36.376 202.798 34.968 204.462 34.008C206.126 33.016 207.95 32.52 209.934 32.52C211.662 32.52 213.166 32.936 214.446 33.768C215.758 34.568 216.734 35.64 217.374 36.984V22.2H222.51V57H217.95L217.662 52.44C217.022 54.04 215.966 55.288 214.494 56.184C213.022 57.048 211.39 57.48 209.598 57.48ZM210.702 53.352C212.718 53.352 214.334 52.584 215.55 51.048C216.766 49.512 217.374 47.4 217.374 44.712C217.374 42.216 216.766 40.264 215.55 38.856C214.366 37.416 212.814 36.696 210.894 36.696C208.75 36.696 207.086 37.432 205.902 38.904C204.718 40.376 204.126 42.408 204.126 45C204.126 47.592 204.702 49.64 205.854 51.144C207.006 52.616 208.622 53.352 210.702 53.352Z" fill="url(#paint7_linear_12_39)"/>
<path d="M251.548 33L241.036 59.832C239.98 62.616 238.78 64.552 237.436 65.64C236.092 66.76 234.364 67.32 232.252 67.32C231.068 67.32 229.996 67.176 229.036 66.888C228.076 66.6 227.228 66.184 226.492 65.64L227.74 61.656C228.892 62.68 230.284 63.192 231.916 63.192C232.78 63.192 233.548 62.968 234.22 62.52C234.924 62.072 235.548 61.144 236.092 59.736L237.148 57.144L234.604 51.192L227.116 33H232.876L238.204 48.072L239.596 52.584L241.18 47.64L246.22 33H251.548Z" fill="url(#paint8_linear_12_39)"/>
<defs>
<linearGradient id="paint0_linear_12_39" x1="5.3662" y1="38.0714" x2="254.008" y2="39.1639" gradientUnits="userSpaceOnUse">
<stop stop-color="#FF86DD"/>
<stop offset="1" stop-color="#FFA48F"/>
</linearGradient>
<linearGradient id="paint1_linear_12_39" x1="5.3662" y1="38.0714" x2="254.008" y2="39.1639" gradientUnits="userSpaceOnUse">
<stop stop-color="#FF86DD"/>
<stop offset="1" stop-color="#FFA48F"/>
</linearGradient>
<linearGradient id="paint2_linear_12_39" x1="5.3662" y1="38.0714" x2="254.008" y2="39.1639" gradientUnits="userSpaceOnUse">
<stop stop-color="#FF86DD"/>
<stop offset="1" stop-color="#FFA48F"/>
</linearGradient>
<linearGradient id="paint3_linear_12_39" x1="5.3662" y1="38.0714" x2="254.008" y2="39.1639" gradientUnits="userSpaceOnUse">
<stop stop-color="#FF86DD"/>
<stop offset="1" stop-color="#FFA48F"/>
</linearGradient>
<linearGradient id="paint4_linear_12_39" x1="5.3662" y1="38.0714" x2="254.008" y2="39.1639" gradientUnits="userSpaceOnUse">
<stop stop-color="#FF86DD"/>
<stop offset="1" stop-color="#FFA48F"/>
</linearGradient>
<linearGradient id="paint5_linear_12_39" x1="5.3662" y1="38.0714" x2="254.008" y2="39.1639" gradientUnits="userSpaceOnUse">
<stop stop-color="#FF86DD"/>
<stop offset="1" stop-color="#FFA48F"/>
</linearGradient>
<linearGradient id="paint6_linear_12_39" x1="5.3662" y1="38.0714" x2="254.008" y2="39.1639" gradientUnits="userSpaceOnUse">
<stop stop-color="#FF86DD"/>
<stop offset="1" stop-color="#FFA48F"/>
</linearGradient>
<linearGradient id="paint7_linear_12_39" x1="5.3662" y1="38.0714" x2="254.008" y2="39.1639" gradientUnits="userSpaceOnUse">
<stop stop-color="#FF86DD"/>
<stop offset="1" stop-color="#FFA48F"/>
</linearGradient>
<linearGradient id="paint8_linear_12_39" x1="5.3662" y1="38.0714" x2="254.008" y2="39.1639" gradientUnits="userSpaceOnUse">
<stop stop-color="#FF86DD"/>
<stop offset="1" stop-color="#FFA48F"/>
</linearGradient>
</defs>
</svg>
