<svg width="43" height="43" viewBox="0 0 43 43" fill="none" xmlns="http://www.w3.org/2000/svg">
<path d="M14.2261 13.9907L14.223 13.9907C12.5164 13.967 11.0748 14.5844 10.0381 15.66C9.0906 16.6429 8.4588 18.0326 8.29595 19.7223H19.5606C19.2958 16.284 17.0551 14.0126 14.2261 13.9907Z" fill="#9D9D9D"/>
<path fill-rule="evenodd" clip-rule="evenodd" d="M21.5 43C33.3741 43 43 33.3741 43 21.5C43 9.62588 33.3741 0 21.5 0C9.62588 0 0 9.62588 0 21.5C0 33.3741 9.62588 43 21.5 43ZM37.4236 29.6721C37.3797 29.8229 37.2675 29.9444 37.1206 30C36.5607 30.212 35.9426 30.2116 35.383 29.9988C34.8322 29.7893 34.3758 29.3884 34.0969 28.8701C33.1349 27.4316 32.1073 26.0435 31.0708 24.6434C30.6251 24.0414 30.1776 23.4369 29.7331 22.8255L29.4976 22.5114C29.1995 22.9088 28.9022 23.3032 28.6065 23.6956L28.6044 23.6983C27.2957 25.4346 26.0161 27.1323 24.8201 28.8802C24.5545 29.3775 24.1201 29.7643 23.5946 29.9706C23.059 30.1808 22.4653 30.1893 21.9239 29.9943C21.7749 29.9406 21.6602 29.8196 21.6145 29.6679C21.5689 29.5163 21.5978 29.352 21.6924 29.2251L28.0448 20.7032L22.1562 13.0292C22.0591 12.9027 22.0282 12.7374 22.073 12.5843C22.1179 12.4312 22.233 12.3087 22.3831 12.2546C22.9318 12.0564 23.5321 12.0537 24.0826 12.2469C24.6288 12.4385 25.0929 12.8114 25.3976 13.3033C26.3746 14.73 27.4198 16.1065 28.4931 17.5199C28.8401 17.9768 29.1905 18.4383 29.542 18.9058C29.8203 18.539 30.0974 18.1753 30.3729 17.8137C31.5181 16.3107 32.6358 14.8435 33.7008 13.3376C33.9692 12.847 34.4055 12.4689 34.9302 12.2731C35.4656 12.0733 36.0558 12.0773 36.5885 12.2843C36.7345 12.3411 36.8455 12.463 36.8883 12.6136C36.9312 12.7643 36.9009 12.9263 36.8066 13.0514L34.4316 16.2011C34.2167 16.4847 34.002 16.7694 33.787 17.0545L33.7863 17.0555C32.9416 18.1755 32.092 19.302 31.2052 20.4002C31.1884 20.4212 31.1698 20.4407 31.1498 20.4586C31.113 20.4916 31.0836 20.5319 31.0634 20.5769C31.0433 20.622 31.0329 20.6708 31.0329 20.7201C31.0329 20.7695 31.0433 20.8183 31.0634 20.8633C31.0836 20.9084 31.113 20.9487 31.1498 20.9816C31.1739 21.0033 31.1959 21.0272 31.2155 21.0531C32.6997 23.0217 34.1751 24.9952 35.6705 26.9954L35.6763 27.0032C36.2289 27.7424 36.7843 28.4852 37.3438 29.2328C37.438 29.3586 37.4675 29.5213 37.4236 29.6721ZM5.83252 20.5882C5.83252 20.5537 5.8361 20.5193 5.84319 20.4855C5.89994 20.2153 5.9524 19.9179 6.00707 19.6081C6.11106 19.0188 6.22301 18.3843 6.38753 17.8055C7.94643 12.2654 14.3408 9.89357 18.7769 13.3784C21.3752 15.4187 21.9916 18.3044 21.8696 21.4078C21.859 21.6761 21.6385 21.8882 21.37 21.8882H8.24494C8.26021 24.2408 9.11668 26.0701 10.4539 27.1623C11.8731 28.3214 13.9112 28.7142 16.2706 27.928C17.0008 27.6659 17.6544 27.2265 18.1728 26.6492C18.6923 26.0706 19.0595 25.3718 19.2414 24.6157C19.2439 24.6053 19.2467 24.5949 19.2499 24.5846C19.3964 24.1122 19.6282 23.6944 20.0615 23.4931C20.4786 23.2993 20.9429 23.3748 21.3713 23.5056C21.6044 23.5767 21.7523 23.8057 21.7212 24.0475C21.5784 25.1585 21.1856 26.2227 20.5723 27.16C19.959 28.0973 19.1412 28.8834 18.1804 29.4592L18.1723 29.4639L18.1632 29.469C16.5903 30.3291 14.7856 30.6699 13.0073 30.4426C11.229 30.2152 9.56813 29.4313 8.26218 28.2031C8.25136 28.1929 8.24099 28.1823 8.23112 28.1712C6.94262 26.7224 6.16353 24.8919 6.01275 22.9589C6.01174 22.946 6.01123 22.933 6.01123 22.92C6.01123 22.8357 5.99484 22.7371 5.96298 22.6077C5.9544 22.5729 5.94159 22.5249 5.92732 22.4714C5.90172 22.3755 5.87144 22.262 5.85258 22.1758C5.8453 22.1426 5.84144 22.1087 5.84106 22.0746C5.83537 21.5679 5.83252 21.0724 5.83252 20.5882Z" fill="#9D9D9D"/>
</svg>
